<mxfile host="app.diagrams.net" modified="2024-01-09T13:17:21.282Z" agent="Mozilla/5.0 (Windows NT 10.0; Win64; x64) AppleWebKit/537.36 (KHTML, like Gecko) Chrome/120.0.0.0 Safari/537.36" version="22.1.17" etag="1ClLbjSuByMRy6fhlyg5" type="github">
  <diagram name="Page-1" id="EcM0DHrrkKJeAS8n2qn4">
    <mxGraphModel>
      <root>
        <mxCell id="0" />
        <mxCell id="1" parent="0" />
      </root>
    </mxGraphModel>
  </diagram>
</mxfile>
